<?xml version="1.0" encoding="UTF-8"?>
<svg id="Capa_2" data-name="Capa 2" xmlns="http://www.w3.org/2000/svg" viewBox="0 0 400 400">
  <defs>
    <style>
      .cls-1 {
        fill: blue;
      }
    </style>
  </defs>
  <path class="cls-1" d="M314.48,84.05L184.27,238.99c-10.4-23.57-29.37-32.33-43.47-32.33-20.43,0-34.74,18.39-38.82,18.39s-12.26-18.39-40.14-18.39-47.85,28.61-47.85,76.95c0,44.61,38.38,72.39,78.02,76.42,.91,12.77,11.22,24.39,26.07,24.39H386V84.05h-71.52Z"/>
  <path class="cls-1" d="M120.37,14.58c-19.18,0-34.74,15.55-34.74,34.74h0c0,19.18,15.55,34.74,34.74,34.74h194.12L373.74,14.58H120.37Z"/>
  <path class="cls-1" d="M102.93,174.29c-11.3,20.76-.96,50.75-.96,50.75l32.69-89.91s-20.43,18.39-31.74,39.15Z"/>
  <path class="cls-1" d="M67.24,192.35c26.56,0,32.25-9.36,32.25-9.36,0,0-6.13-40.34-37.58-40.34s-37.58,6.79-37.58,6.79c0,0,16.35,42.91,42.91,42.91Z"/>
</svg>